{"title":"Foo.Fighters.Everywhere.But.Home.2003.DVDRip.XviD-NoZ","uid":6618196,"size":1468022784,"categoryP":"video","categoryS":"music_videos","magnet":"?xt=urn:btih:feb95665aa987c014de08aa3e91b09a0b16d8c36&amp;dn=Foo.Fighters.Everywhere.But.Home.2003.DVDRip.XviD-NoZ&amp;tr=udp%3A%2F%2Ftracker.openbittorrent.com%3A80&amp;tr=udp%3A%2F%2Fopen.demonii.com%3A1337&amp;tr=udp%3A%2F%2Ftracker.coppersurfer.tk%3A6969&amp;tr=udp%3A%2F%2Fexodus.desync.com%3A6969","seeders":0,"leechers":1,"uploader":"onilz","files":-1,"time":1313873886,"description":"Foo.Fighters.Everywhere.But.Home.2003.DVDRip.XviD-NoZ\n\n\nFormat                           : AVI\nFile size                        : 1.37 GiB\nDuration                         : 1h 32mn\nOverall bit rate                 : 2 109 Kbps\n\nVideo\nFormat                           : MPEG-4 Visual\nFormat profile                   : Advanced Simple@L5\nFormat settings, BVOP            : Yes\nFormat settings, QPel            : No\nFormat settings, GMC             : No warppoints\nFormat settings, Matrix          : Custom\nCodec ID                         : XVID\nCodec ID/Hint                    : XviD\nDuration                         : 1h 32mn\nBit rate                         : 1 877 Kbps\nWidth                            : 640 pixels\nHeight                           : 368 pixels\nDisplay aspect ratio             : 16:9\nFrame rate                       : 29.970 fps\nResolution                       : 8 bits\nColorimetry                      : 4:2:0\nScan type                        : Progressive\nBits/(Pixel*Frame)               : 0.266\nStream size                      : 1.22 GiB (89%)\nWriting library                  : XviD 1.2.1 (UTC 2008-12-04)\n\nAudio\nID                               : 1\nFormat                           : AC-3\nFormat/Info                      : Audio Coding 3\nCodec ID                         : 2000\nDuration                         : 1h 32mn\nBit rate mode                    : Constant\nBit rate                         : 224 Kbps\nChannel(s)                       : 2 channels\nChannel positions                : L R\nSampling rate                    : 48.0 KHz\nStream size                      : 149 MiB (11%)\nAlignment                        : Aligned on interleaves\nInterleave, duration             : 96 ms (2.88 video frames)\nInterleave, preload duration     : 96 ms\n\n\nenjoy...\nPeace!\n\n","torrent":{"xt":"urn:btih:feb95665aa987c014de08aa3e91b09a0b16d8c36","amp;dn":"Foo.Fighters.Everywhere.But.Home.2003.DVDRip.XviD-NoZ","amp;tr":["udp%3A%2F%2Ftracker.openbittorrent.com%3A80","udp%3A%2F%2Fopen.demonii.com%3A1337","udp%3A%2F%2Ftracker.coppersurfer.tk%3A6969","udp%3A%2F%2Fexodus.desync.com%3A6969"],"infoHash":"feb95665aa987c014de08aa3e91b09a0b16d8c36","infoHashBuffer":{"type":"Buffer","data":[254,185,86,101,170,152,124,1,77,224,138,163,233,27,9,160,177,109,140,54]},"announce":[],"urlList":[]}}